<?xml version="1.0" encoding="utf-8"?>
<!-- Generator: Adobe Illustrator 19.0.0, SVG Export Plug-In . SVG Version: 6.00 Build 0)  -->
<svg version="1.1" id="图层_1" xmlns:sketch="http://www.bohemiancoding.com/sketch/ns"
	 xmlns="http://www.w3.org/2000/svg" xmlns:xlink="http://www.w3.org/1999/xlink" x="0px" y="0px" viewBox="-61 343.9 473 155"
	 style="enable-background:new -61 343.9 473 155;" xml:space="preserve">
<style type="text/css">
	.st0{fill:#FE5453;}
	.st1{fill:#FFFFFF;stroke:#FFFFFF;stroke-width:2.7097;}
	.st2{fill:#333333;stroke:#333333;stroke-width:4.5161;}
</style>
<title>Rectangle 1 Copy + P + 拍片网</title>
<desc>Created with Sketch.</desc>
<g id="Page-1" sketch:type="MSPage">
	<g id="Rectangle-1-Copy-_x2B_-P-_x2B_-拍片网" sketch:type="MSLayerGroup">
		<g id="Rectangle-1-Copy-_x2B_-P" sketch:type="MSShapeGroup">
			<rect id="Rectangle-1-Copy" x="-38.3" y="351.4" class="st0" width="140" height="140"/>
			<path id="P" class="st1" d="M2.2,401.7v62.3h7.5v-26.7H46c4.7,0,8.7-1.7,12-5c3.3-3.3,5-7.4,5-12.1v-18.6c0-4.8-1.7-8.8-5-12.1
				c-3.3-3.3-7.3-5-12-5H19.4c-4.8,0-8.8,1.7-12.1,5C3.9,392.9,2.2,396.9,2.2,401.7L2.2,401.7z M9.7,401.7c0-2.7,0.9-5,2.8-6.8
				c1.9-1.9,4.1-2.8,6.8-2.8H46c2.6,0,4.9,0.9,6.7,2.8c1.9,1.9,2.8,4.1,2.8,6.8v18.6c0,2.7-0.9,5-2.8,6.8c-1.9,1.9-4.1,2.8-6.7,2.8
				H9.7V401.7z"/>
		</g>
		<path id="拍片网" sketch:type="MSShapeGroup" class="st2" d="M182.1,383.2v9.5h-5c-5.7,0-10.4,4.7-10.4,10.5v51.3
			c0,5.7,4.8,10.4,10.4,10.4h25.2c5.7,0,10.4-4.8,10.4-10.4v-51.3c0-5.8-4.8-10.5-10.4-10.5h-15.7v-9.5H182.1z M177.1,460.4
			c-3.3,0-6-2.7-6-6v-24.2h37.3v24.2c0,3.3-2.7,6-6,6H177.1z M171,403.2c0-3.5,2.7-6,6-6h25.2c3.3,0,6,2.6,6,6v22.7H171V403.2z
			 M136.2,465.1h4.8c5.8,0,10.5-4.7,10.5-10.5v-22l10.9-6l-2.1-3.9l-8.8,4.8v-26.7h8v-4.5h-8v-12.7H147v12.7h-12.4v4.5H147V430
			l-13.3,7.3l2.1,4l11.2-6.1v19.5c0,3.5-2.6,6-6,6h-4.8V465.1z M278.1,383.9v19.8h-39.7v-20.4H234v45.3c0,14.1-3.4,23.5-11.8,32.9
			l3.3,3c8.2-9.2,12-18.1,12.7-30.9H282c3.3,0,6,2.7,6,6v25.5h4.4v-25.5c0-5.7-4.8-10.4-10.4-10.4h-43.5v-21.1h62.9v-4.5h-18.9
			v-19.8H278.1z M369.4,465.4h6.1c5.7,0,10.4-4.7,10.4-10.5v-57.4c0-5.7-4.8-10.4-10.4-10.4H325c-5.8,0-10.4,4.8-10.4,10.4v68h4.5
			v-68c0-3.3,2.6-5.9,5.8-5.9h50.5c3.3,0,5.9,2.7,5.9,5.9v57.4c0,3.5-2.7,6-5.9,6h-6.1V465.4z M351.4,403.2l11.6,24.3
			c-3.6,7.8-8.1,15-13.2,21.8l3.6,2.7c4.5-6.1,8.6-12.5,11.9-19.3l8.9,18.8l4-2l-10.4-22c3.5-7.9,6.1-16.3,7.9-25.3l-4.4-0.9
			c-1.4,7.4-3.4,14.3-6,20.9l-9.9-21L351.4,403.2z M323.4,404.2l12.4,22.6c-3.6,8.1-8.1,15.5-13.5,22.5l3.6,2.7
			c4.8-6.4,8.9-13.1,12.5-20.3l7.1,12.8l4-2.1l-8.8-15.8c3.3-7.6,5.8-15.8,7.5-24.4l-4.4-0.9c-1.4,7.2-3.4,13.9-5.8,20.3l-10.6-19.4
			L323.4,404.2z"/>
	</g>
</g>
</svg>
